<?xml version="1.0" encoding="UTF-8"?>
<svg width="32px" height="31px" viewBox="0 0 32 31" version="1.1" xmlns="http://www.w3.org/2000/svg" xmlns:xlink="http://www.w3.org/1999/xlink">
    <!-- Generator: Sketch 55.2 (78181) - https://sketchapp.com -->
    <title>instagram copy</title>
    <desc>Created with Sketch.</desc>
    <g id="Page-1" stroke="none" stroke-width="1" fill="none" fill-rule="evenodd">
        <g id="home" transform="translate(-223.000000, -3806.000000)">
            <g id="CONTACTO" transform="translate(0.000000, 3615.000000)">
                <g id="redes-sociales" transform="translate(133.500000, 191.000000)">
                    <g id="instagram-copy" transform="translate(90.000000, 0.000000)">
                        <rect id="Rectangle" x="0" y="0" width="31" height="31"></rect>
                        <circle id="Oval" stroke="#FFFFFF" stroke-width="2" cx="15.5" cy="15.5" r="14.5"></circle>
                        <path d="M19.8222174,8.45454545 L11.1777826,8.45454545 C9.67656397,8.45454545 8.45454545,9.67573548 8.45454545,11.1777826 L8.45454545,19.8222174 C8.45454545,21.3242645 9.67656397,22.5454545 11.1777826,22.5454545 L19.8222174,22.5454545 C21.323436,22.5454545 22.5454545,21.3242645 22.5454545,19.8222174 L22.5454545,11.1777826 C22.5454545,9.67573548 21.323436,8.45454545 19.8222174,8.45454545 L19.8222174,8.45454545 Z M20.6034807,10.0792087 L20.9149919,10.0775517 L20.9149919,12.4660801 L18.5339199,12.4735365 L18.525635,10.0850081 L20.6034807,10.0792087 L20.6034807,10.0792087 Z M13.4892617,14.0534615 C13.9399587,13.4287822 14.6723414,13.0195095 15.5,13.0195095 C16.3276586,13.0195095 17.0600413,13.4287822 17.5107383,14.0534615 C17.8048512,14.4610771 17.9804905,14.9598264 17.9804905,15.5 C17.9804905,16.8670038 16.8678323,17.979662 15.5,17.979662 C14.1329962,17.979662 13.020338,16.8670038 13.020338,15.5 C13.020338,14.9598264 13.1959773,14.4610771 13.4892617,14.0534615 L13.4892617,14.0534615 Z M21.1726514,19.8222174 C21.1726514,20.5670273 20.5670273,21.1726514 19.8222174,21.1726514 L11.1777826,21.1726514 C10.4329727,21.1726514 9.82734863,20.5670273 9.82734863,19.8222174 L9.82734863,14.0534615 L11.9317059,14.0534615 C11.7494388,14.5008445 11.6475348,14.9888234 11.6475348,15.5 C11.6475348,17.624241 13.375759,19.3532936 15.5,19.3532936 C17.6250695,19.3532936 19.3532936,17.624241 19.3532936,15.5 C19.3532936,14.9888234 19.2497327,14.5008445 19.0691226,14.0534615 L21.1726514,14.0534615 L21.1726514,19.8222174 L21.1726514,19.8222174 Z" id="Shape" fill="#FFFFFF"></path>
                    </g>
                </g>
            </g>
        </g>
    </g>
</svg>