<?xml version="1.0" encoding="UTF-8"?>
<svg width="32px" height="31px" viewBox="0 0 32 31" version="1.1" xmlns="http://www.w3.org/2000/svg" xmlns:xlink="http://www.w3.org/1999/xlink">
    <!-- Generator: Sketch 55.2 (78181) - https://sketchapp.com -->
    <title>twitter copy 2</title>
    <desc>Created with Sketch.</desc>
    <g id="Page-1" stroke="none" stroke-width="1" fill="none" fill-rule="evenodd">
        <g id="home" transform="translate(-178.000000, -3806.000000)">
            <g id="CONTACTO" transform="translate(0.000000, 3615.000000)">
                <g id="redes-sociales" transform="translate(133.500000, 191.000000)">
                    <g id="twitter-copy-2" transform="translate(45.000000, 0.000000)">
                        <rect id="Rectangle" x="0" y="0" width="31" height="31"></rect>
                        <circle id="Oval" stroke="#FFFFFF" stroke-width="2" cx="15.5" cy="15.5" r="14.5"></circle>
                        <path d="M21.5070595,11.8685836 C22.1340665,11.4729065 22.6151771,10.8455018 22.8409691,10.0981117 C22.2539099,10.4653953 21.6051922,10.7310119 20.9130529,10.8748112 C20.3607309,10.2519861 19.5713274,9.86363636 18.6976861,9.86363636 C17.0216147,9.86363636 15.663389,11.29705 15.663389,13.0647742 C15.663389,13.3157361 15.6885735,13.5602865 15.7406794,13.7938459 C13.2187565,13.6601217 10.9825473,12.3869939 9.48450431,10.4489088 C9.22310666,10.923355 9.07373657,11.4729065 9.07373657,12.0590948 C9.07373657,13.169189 9.60955834,14.1492226 10.4241464,14.7244199 C9.92653556,14.7079334 9.45845139,14.5623022 9.04855208,14.3241632 L9.04855208,14.3635477 C9.04855208,15.915115 10.0941427,17.2093089 11.4845003,17.5024031 C11.2291817,17.5775084 10.961705,17.6150611 10.6838072,17.6150611 C10.4884103,17.6150611 10.2973555,17.5958268 10.1132482,17.5582741 C10.4988314,18.8295701 11.6199755,19.7564804 12.9486745,19.7812102 C11.9091629,20.6403425 10.6004378,21.1514254 9.17881669,21.1514254 C8.93391922,21.1514254 8.69162705,21.1376866 8.45454545,21.1074613 C9.79800781,22.0151373 11.3933151,22.5454545 13.1075974,22.5454545 C18.691607,22.5454545 21.7432727,17.6672685 21.7432727,13.4366374 C21.7432727,13.2974177 21.7415358,13.1591139 21.7354568,13.0226419 C22.328595,12.5710937 22.8444428,12.0068875 23.25,11.364828 C22.7054939,11.6194536 22.1201716,11.7916464 21.5070595,11.8685836 Z" id="Shape" fill="#FFFFFF"></path>
                    </g>
                </g>
            </g>
        </g>
    </g>
</svg>